<mxfile host="app.diagrams.net" agent="Mozilla/5.0 (Macintosh; Intel Mac OS X 10_15_7) AppleWebKit/537.36 (KHTML, like Gecko) Chrome/132.0.0.0 Safari/537.36" version="26.0.10" pages="2">
  <diagram name="Pemesanan Online" id="-Wyo0hSS3IOV0e9g7ALJ">
    <mxGraphModel dx="1137" dy="684" grid="1" gridSize="10" guides="1" tooltips="1" connect="1" arrows="1" fold="1" page="1" pageScale="1" pageWidth="1000" pageHeight="2000" math="0" shadow="0">
      <root>
        <mxCell id="0" />
        <mxCell id="1" parent="0" />
        <mxCell id="3yCHpHKNm5vZJp_wMgbb-9" value="g" style="edgeStyle=orthogonalEdgeStyle;rounded=0;orthogonalLoop=1;jettySize=auto;html=1;entryX=0.5;entryY=0;entryDx=0;entryDy=0;" edge="1" parent="1" source="3yCHpHKNm5vZJp_wMgbb-1" target="3yCHpHKNm5vZJp_wMgbb-2">
          <mxGeometry relative="1" as="geometry" />
        </mxCell>
        <mxCell id="3yCHpHKNm5vZJp_wMgbb-1" value="START" style="ellipse;whiteSpace=wrap;html=1;" vertex="1" parent="1">
          <mxGeometry x="405" y="40" width="120" height="80" as="geometry" />
        </mxCell>
        <mxCell id="3yCHpHKNm5vZJp_wMgbb-10" style="edgeStyle=orthogonalEdgeStyle;rounded=0;orthogonalLoop=1;jettySize=auto;html=1;" edge="1" parent="1" source="3yCHpHKNm5vZJp_wMgbb-2" target="3yCHpHKNm5vZJp_wMgbb-3">
          <mxGeometry relative="1" as="geometry" />
        </mxCell>
        <mxCell id="3yCHpHKNm5vZJp_wMgbb-2" value="Pelanggan melakukan pemesanan" style="rounded=0;whiteSpace=wrap;html=1;" vertex="1" parent="1">
          <mxGeometry x="405" y="160" width="120" height="60" as="geometry" />
        </mxCell>
        <mxCell id="3yCHpHKNm5vZJp_wMgbb-11" style="edgeStyle=orthogonalEdgeStyle;rounded=0;orthogonalLoop=1;jettySize=auto;html=1;entryX=0.5;entryY=0;entryDx=0;entryDy=0;" edge="1" parent="1" source="3yCHpHKNm5vZJp_wMgbb-3" target="3yCHpHKNm5vZJp_wMgbb-4">
          <mxGeometry relative="1" as="geometry" />
        </mxCell>
        <mxCell id="3yCHpHKNm5vZJp_wMgbb-3" value="Sistem menghitung biaya" style="rounded=0;whiteSpace=wrap;html=1;" vertex="1" parent="1">
          <mxGeometry x="405" y="250" width="120" height="60" as="geometry" />
        </mxCell>
        <mxCell id="3yCHpHKNm5vZJp_wMgbb-12" style="edgeStyle=orthogonalEdgeStyle;rounded=0;orthogonalLoop=1;jettySize=auto;html=1;entryX=0.5;entryY=0;entryDx=0;entryDy=0;" edge="1" parent="1" source="3yCHpHKNm5vZJp_wMgbb-4" target="3yCHpHKNm5vZJp_wMgbb-5">
          <mxGeometry relative="1" as="geometry" />
        </mxCell>
        <mxCell id="3yCHpHKNm5vZJp_wMgbb-4" value="Pelanggan melakukan pembayaran" style="rounded=0;whiteSpace=wrap;html=1;" vertex="1" parent="1">
          <mxGeometry x="405" y="340" width="120" height="60" as="geometry" />
        </mxCell>
        <mxCell id="3yCHpHKNm5vZJp_wMgbb-13" style="edgeStyle=orthogonalEdgeStyle;rounded=0;orthogonalLoop=1;jettySize=auto;html=1;entryX=1;entryY=0.5;entryDx=0;entryDy=0;" edge="1" parent="1" source="3yCHpHKNm5vZJp_wMgbb-5" target="3yCHpHKNm5vZJp_wMgbb-8">
          <mxGeometry relative="1" as="geometry" />
        </mxCell>
        <mxCell id="3yCHpHKNm5vZJp_wMgbb-17" value="Tidak" style="edgeLabel;html=1;align=center;verticalAlign=middle;resizable=0;points=[];" vertex="1" connectable="0" parent="3yCHpHKNm5vZJp_wMgbb-13">
          <mxGeometry x="0.0021" y="-1" relative="1" as="geometry">
            <mxPoint as="offset" />
          </mxGeometry>
        </mxCell>
        <mxCell id="OCHQxBlXd7MHM6V3-oPM-5" style="edgeStyle=orthogonalEdgeStyle;rounded=0;orthogonalLoop=1;jettySize=auto;html=1;" edge="1" parent="1" source="3yCHpHKNm5vZJp_wMgbb-5" target="OCHQxBlXd7MHM6V3-oPM-1">
          <mxGeometry relative="1" as="geometry" />
        </mxCell>
        <mxCell id="OCHQxBlXd7MHM6V3-oPM-6" value="Ya" style="edgeLabel;html=1;align=center;verticalAlign=middle;resizable=0;points=[];" vertex="1" connectable="0" parent="OCHQxBlXd7MHM6V3-oPM-5">
          <mxGeometry x="-0.5846" relative="1" as="geometry">
            <mxPoint as="offset" />
          </mxGeometry>
        </mxCell>
        <mxCell id="3yCHpHKNm5vZJp_wMgbb-5" value="Pembayaran Berhasil" style="rhombus;whiteSpace=wrap;html=1;" vertex="1" parent="1">
          <mxGeometry x="410" y="440" width="110" height="90" as="geometry" />
        </mxCell>
        <mxCell id="3yCHpHKNm5vZJp_wMgbb-6" value="Pesanan diantar pelanggan" style="rounded=0;whiteSpace=wrap;html=1;" vertex="1" parent="1">
          <mxGeometry x="40" y="590" width="120" height="60" as="geometry" />
        </mxCell>
        <mxCell id="3yCHpHKNm5vZJp_wMgbb-7" value="END" style="ellipse;whiteSpace=wrap;html=1;" vertex="1" parent="1">
          <mxGeometry x="405" y="850" width="120" height="80" as="geometry" />
        </mxCell>
        <mxCell id="3yCHpHKNm5vZJp_wMgbb-8" value="Pesanan dibatalkan" style="rounded=0;whiteSpace=wrap;html=1;" vertex="1" parent="1">
          <mxGeometry x="195" y="455" width="120" height="60" as="geometry" />
        </mxCell>
        <mxCell id="3yCHpHKNm5vZJp_wMgbb-19" value="&lt;h1 style=&quot;margin-top: 0px;&quot;&gt;Pemesanan Online&lt;/h1&gt;&lt;p&gt;Alur mengenai bagaimana customer melakukan pesanan.&lt;/p&gt;" style="text;html=1;whiteSpace=wrap;overflow=hidden;rounded=0;" vertex="1" parent="1">
          <mxGeometry x="140" y="40" width="180" height="120" as="geometry" />
        </mxCell>
        <mxCell id="OCHQxBlXd7MHM6V3-oPM-3" value="Tidak" style="edgeStyle=orthogonalEdgeStyle;rounded=0;orthogonalLoop=1;jettySize=auto;html=1;entryX=1;entryY=0.5;entryDx=0;entryDy=0;" edge="1" parent="1" source="OCHQxBlXd7MHM6V3-oPM-1" target="OCHQxBlXd7MHM6V3-oPM-2">
          <mxGeometry relative="1" as="geometry" />
        </mxCell>
        <mxCell id="OCHQxBlXd7MHM6V3-oPM-8" style="edgeStyle=orthogonalEdgeStyle;rounded=0;orthogonalLoop=1;jettySize=auto;html=1;" edge="1" parent="1" source="OCHQxBlXd7MHM6V3-oPM-1" target="OCHQxBlXd7MHM6V3-oPM-7">
          <mxGeometry relative="1" as="geometry" />
        </mxCell>
        <mxCell id="OCHQxBlXd7MHM6V3-oPM-10" value="Ya" style="edgeLabel;html=1;align=center;verticalAlign=middle;resizable=0;points=[];" vertex="1" connectable="0" parent="OCHQxBlXd7MHM6V3-oPM-8">
          <mxGeometry x="0.2191" y="-1" relative="1" as="geometry">
            <mxPoint as="offset" />
          </mxGeometry>
        </mxCell>
        <mxCell id="OCHQxBlXd7MHM6V3-oPM-1" value="Layanan&amp;nbsp;&lt;div&gt;jemput?&lt;/div&gt;" style="rhombus;whiteSpace=wrap;html=1;direction=south;" vertex="1" parent="1">
          <mxGeometry x="407.5" y="567.5" width="115" height="105" as="geometry" />
        </mxCell>
        <mxCell id="OCHQxBlXd7MHM6V3-oPM-4" style="edgeStyle=orthogonalEdgeStyle;rounded=0;orthogonalLoop=1;jettySize=auto;html=1;" edge="1" parent="1" source="OCHQxBlXd7MHM6V3-oPM-2" target="3yCHpHKNm5vZJp_wMgbb-6">
          <mxGeometry relative="1" as="geometry" />
        </mxCell>
        <mxCell id="OCHQxBlXd7MHM6V3-oPM-2" value="Tampilkan jadwal operasional" style="rounded=0;whiteSpace=wrap;html=1;" vertex="1" parent="1">
          <mxGeometry x="200" y="590" width="120" height="60" as="geometry" />
        </mxCell>
        <mxCell id="OCHQxBlXd7MHM6V3-oPM-9" style="edgeStyle=orthogonalEdgeStyle;rounded=0;orthogonalLoop=1;jettySize=auto;html=1;" edge="1" parent="1" source="OCHQxBlXd7MHM6V3-oPM-7" target="3yCHpHKNm5vZJp_wMgbb-7">
          <mxGeometry relative="1" as="geometry" />
        </mxCell>
        <mxCell id="OCHQxBlXd7MHM6V3-oPM-7" value="Pesanan dijemput sesuai dengan jam yang dipilih pelanggan" style="rounded=0;whiteSpace=wrap;html=1;" vertex="1" parent="1">
          <mxGeometry x="405" y="730" width="120" height="60" as="geometry" />
        </mxCell>
      </root>
    </mxGraphModel>
  </diagram>
  <diagram name="Proses Pesanan" id="xkMfCHw5UZnkHWO_G2BD">
    <mxGraphModel dx="2388" dy="1436" grid="1" gridSize="10" guides="1" tooltips="1" connect="1" arrows="1" fold="1" page="1" pageScale="1" pageWidth="10000" pageHeight="10000" math="0" shadow="0">
      <root>
        <mxCell id="sRl0FtZXHLcyQRsZ2hQA-0" />
        <mxCell id="sRl0FtZXHLcyQRsZ2hQA-1" parent="sRl0FtZXHLcyQRsZ2hQA-0" />
        <mxCell id="PE-GAAiJWMo0IYzRv9Ax-10" style="edgeStyle=orthogonalEdgeStyle;rounded=0;orthogonalLoop=1;jettySize=auto;html=1;" edge="1" parent="sRl0FtZXHLcyQRsZ2hQA-1" source="sRl0FtZXHLcyQRsZ2hQA-3" target="PE-GAAiJWMo0IYzRv9Ax-1">
          <mxGeometry relative="1" as="geometry" />
        </mxCell>
        <mxCell id="sRl0FtZXHLcyQRsZ2hQA-3" value="START" style="ellipse;whiteSpace=wrap;html=1;" vertex="1" parent="sRl0FtZXHLcyQRsZ2hQA-1">
          <mxGeometry x="590" y="40" width="120" height="80" as="geometry" />
        </mxCell>
        <mxCell id="sRl0FtZXHLcyQRsZ2hQA-4" style="edgeStyle=orthogonalEdgeStyle;rounded=0;orthogonalLoop=1;jettySize=auto;html=1;" edge="1" parent="sRl0FtZXHLcyQRsZ2hQA-1" source="sRl0FtZXHLcyQRsZ2hQA-5" target="sRl0FtZXHLcyQRsZ2hQA-7">
          <mxGeometry relative="1" as="geometry" />
        </mxCell>
        <mxCell id="sRl0FtZXHLcyQRsZ2hQA-5" value="Staff memilih pesanan yang akan diproses" style="rounded=0;whiteSpace=wrap;html=1;" vertex="1" parent="sRl0FtZXHLcyQRsZ2hQA-1">
          <mxGeometry x="590" y="340" width="120" height="60" as="geometry" />
        </mxCell>
        <mxCell id="sRl0FtZXHLcyQRsZ2hQA-6" style="edgeStyle=orthogonalEdgeStyle;rounded=0;orthogonalLoop=1;jettySize=auto;html=1;entryX=0.5;entryY=0;entryDx=0;entryDy=0;" edge="1" parent="sRl0FtZXHLcyQRsZ2hQA-1" source="sRl0FtZXHLcyQRsZ2hQA-7" target="sRl0FtZXHLcyQRsZ2hQA-9">
          <mxGeometry relative="1" as="geometry" />
        </mxCell>
        <mxCell id="sRl0FtZXHLcyQRsZ2hQA-7" value="Staff memproses pesanan dan statusnya jadi on progress" style="rounded=0;whiteSpace=wrap;html=1;" vertex="1" parent="sRl0FtZXHLcyQRsZ2hQA-1">
          <mxGeometry x="590" y="450" width="120" height="60" as="geometry" />
        </mxCell>
        <mxCell id="sRl0FtZXHLcyQRsZ2hQA-8" style="edgeStyle=orthogonalEdgeStyle;rounded=0;orthogonalLoop=1;jettySize=auto;html=1;entryX=0.5;entryY=0;entryDx=0;entryDy=0;" edge="1" parent="sRl0FtZXHLcyQRsZ2hQA-1" source="sRl0FtZXHLcyQRsZ2hQA-9" target="sRl0FtZXHLcyQRsZ2hQA-14">
          <mxGeometry relative="1" as="geometry" />
        </mxCell>
        <mxCell id="sRl0FtZXHLcyQRsZ2hQA-9" value="Staff menandai pesanan selesai" style="rounded=0;whiteSpace=wrap;html=1;" vertex="1" parent="sRl0FtZXHLcyQRsZ2hQA-1">
          <mxGeometry x="590" y="540" width="120" height="60" as="geometry" />
        </mxCell>
        <mxCell id="sRl0FtZXHLcyQRsZ2hQA-10" style="edgeStyle=orthogonalEdgeStyle;rounded=0;orthogonalLoop=1;jettySize=auto;html=1;entryX=1;entryY=0.5;entryDx=0;entryDy=0;" edge="1" parent="sRl0FtZXHLcyQRsZ2hQA-1" source="sRl0FtZXHLcyQRsZ2hQA-14" target="sRl0FtZXHLcyQRsZ2hQA-18">
          <mxGeometry relative="1" as="geometry" />
        </mxCell>
        <mxCell id="sRl0FtZXHLcyQRsZ2hQA-11" value="Tidak" style="edgeLabel;html=1;align=center;verticalAlign=middle;resizable=0;points=[];" vertex="1" connectable="0" parent="sRl0FtZXHLcyQRsZ2hQA-10">
          <mxGeometry x="0.0021" y="-1" relative="1" as="geometry">
            <mxPoint as="offset" />
          </mxGeometry>
        </mxCell>
        <mxCell id="sRl0FtZXHLcyQRsZ2hQA-12" value="" style="edgeStyle=orthogonalEdgeStyle;rounded=0;orthogonalLoop=1;jettySize=auto;html=1;" edge="1" parent="sRl0FtZXHLcyQRsZ2hQA-1" source="sRl0FtZXHLcyQRsZ2hQA-14" target="sRl0FtZXHLcyQRsZ2hQA-16">
          <mxGeometry relative="1" as="geometry" />
        </mxCell>
        <mxCell id="sRl0FtZXHLcyQRsZ2hQA-13" value="Ya" style="edgeStyle=orthogonalEdgeStyle;rounded=0;orthogonalLoop=1;jettySize=auto;html=1;" edge="1" parent="sRl0FtZXHLcyQRsZ2hQA-1" source="sRl0FtZXHLcyQRsZ2hQA-14" target="sRl0FtZXHLcyQRsZ2hQA-16">
          <mxGeometry relative="1" as="geometry" />
        </mxCell>
        <mxCell id="sRl0FtZXHLcyQRsZ2hQA-14" value="Layanan&amp;nbsp;&lt;div&gt;Antar?&lt;/div&gt;" style="rhombus;whiteSpace=wrap;html=1;" vertex="1" parent="sRl0FtZXHLcyQRsZ2hQA-1">
          <mxGeometry x="595" y="640" width="110" height="90" as="geometry" />
        </mxCell>
        <mxCell id="sRl0FtZXHLcyQRsZ2hQA-15" style="edgeStyle=orthogonalEdgeStyle;rounded=0;orthogonalLoop=1;jettySize=auto;html=1;" edge="1" parent="sRl0FtZXHLcyQRsZ2hQA-1" source="sRl0FtZXHLcyQRsZ2hQA-16" target="sRl0FtZXHLcyQRsZ2hQA-17">
          <mxGeometry relative="1" as="geometry" />
        </mxCell>
        <mxCell id="sRl0FtZXHLcyQRsZ2hQA-16" value="Pesanan dikirim ke pelanggan" style="rounded=0;whiteSpace=wrap;html=1;" vertex="1" parent="sRl0FtZXHLcyQRsZ2hQA-1">
          <mxGeometry x="590" y="770" width="120" height="60" as="geometry" />
        </mxCell>
        <mxCell id="sRl0FtZXHLcyQRsZ2hQA-17" value="END" style="ellipse;whiteSpace=wrap;html=1;" vertex="1" parent="sRl0FtZXHLcyQRsZ2hQA-1">
          <mxGeometry x="590" y="870" width="120" height="80" as="geometry" />
        </mxCell>
        <mxCell id="sRl0FtZXHLcyQRsZ2hQA-18" value="Menunggu pesanan diambil" style="rounded=0;whiteSpace=wrap;html=1;" vertex="1" parent="sRl0FtZXHLcyQRsZ2hQA-1">
          <mxGeometry x="380" y="655" width="120" height="60" as="geometry" />
        </mxCell>
        <mxCell id="sRl0FtZXHLcyQRsZ2hQA-19" value="&lt;h1 style=&quot;margin-top: 0px;&quot;&gt;Proses Pesanan&lt;/h1&gt;&lt;p&gt;Alur mengenai bagaimana staff menerima pesanan, memproses dan menyelesaikan pesanan&lt;/p&gt;" style="text;html=1;whiteSpace=wrap;overflow=hidden;rounded=0;" vertex="1" parent="sRl0FtZXHLcyQRsZ2hQA-1">
          <mxGeometry x="160" y="70" width="180" height="120" as="geometry" />
        </mxCell>
        <mxCell id="PE-GAAiJWMo0IYzRv9Ax-4" style="edgeStyle=orthogonalEdgeStyle;rounded=0;orthogonalLoop=1;jettySize=auto;html=1;" edge="1" parent="sRl0FtZXHLcyQRsZ2hQA-1" source="PE-GAAiJWMo0IYzRv9Ax-1" target="PE-GAAiJWMo0IYzRv9Ax-2">
          <mxGeometry relative="1" as="geometry" />
        </mxCell>
        <mxCell id="PE-GAAiJWMo0IYzRv9Ax-7" value="Tidak" style="edgeLabel;html=1;align=center;verticalAlign=middle;resizable=0;points=[];" vertex="1" connectable="0" parent="PE-GAAiJWMo0IYzRv9Ax-4">
          <mxGeometry x="-0.0388" y="-1" relative="1" as="geometry">
            <mxPoint as="offset" />
          </mxGeometry>
        </mxCell>
        <mxCell id="PE-GAAiJWMo0IYzRv9Ax-8" value="Ya" style="edgeStyle=orthogonalEdgeStyle;rounded=0;orthogonalLoop=1;jettySize=auto;html=1;" edge="1" parent="sRl0FtZXHLcyQRsZ2hQA-1" source="PE-GAAiJWMo0IYzRv9Ax-1" target="sRl0FtZXHLcyQRsZ2hQA-5">
          <mxGeometry relative="1" as="geometry" />
        </mxCell>
        <mxCell id="PE-GAAiJWMo0IYzRv9Ax-1" value="Pesanan Online" style="rhombus;whiteSpace=wrap;html=1;" vertex="1" parent="sRl0FtZXHLcyQRsZ2hQA-1">
          <mxGeometry x="595" y="160" width="110" height="100" as="geometry" />
        </mxCell>
        <mxCell id="PE-GAAiJWMo0IYzRv9Ax-6" style="edgeStyle=orthogonalEdgeStyle;rounded=0;orthogonalLoop=1;jettySize=auto;html=1;entryX=0.021;entryY=0.524;entryDx=0;entryDy=0;entryPerimeter=0;" edge="1" parent="sRl0FtZXHLcyQRsZ2hQA-1" target="sRl0FtZXHLcyQRsZ2hQA-5">
          <mxGeometry relative="1" as="geometry">
            <mxPoint x="410.0004081632652" y="240" as="sourcePoint" />
            <mxPoint x="571.9200000000001" y="375.58000000000004" as="targetPoint" />
            <Array as="points">
              <mxPoint x="450" y="240" />
              <mxPoint x="450" y="371" />
            </Array>
          </mxGeometry>
        </mxCell>
        <mxCell id="PE-GAAiJWMo0IYzRv9Ax-2" value="Staff mencatat pesanan" style="rounded=0;whiteSpace=wrap;html=1;" vertex="1" parent="sRl0FtZXHLcyQRsZ2hQA-1">
          <mxGeometry x="390" y="180" width="120" height="60" as="geometry" />
        </mxCell>
      </root>
    </mxGraphModel>
  </diagram>
</mxfile>
